<?xml version="1.0" encoding="UTF-8" standalone="no"?>
<svg
   xmlns:dc="http://purl.org/dc/elements/1.1/"
   xmlns:cc="http://creativecommons.org/ns#"
   xmlns:rdf="http://www.w3.org/1999/02/22-rdf-syntax-ns#"
   xmlns:svg="http://www.w3.org/2000/svg"
   xmlns="http://www.w3.org/2000/svg"
   xmlns:sodipodi="http://sodipodi.sourceforge.net/DTD/sodipodi-0.dtd"
   xmlns:inkscape="http://www.inkscape.org/namespaces/inkscape"
   width="157.57385"
   height="173.03514"
   viewBox="0 0 147.72583 162.22188"
   version="1.1"
   id="svg18"
   sodipodi:docname="cerebro.svg"
   inkscape:version="1.0.1 (0767f8302a, 2020-10-17)">
  <metadata
     id="metadata24">
    <rdf:RDF>
      <cc:Work
         rdf:about="">
        <dc:format>image/svg+xml</dc:format>
        <dc:type
           rdf:resource="http://purl.org/dc/dcmitype/StillImage" />
        <dc:title></dc:title>
      </cc:Work>
    </rdf:RDF>
  </metadata>
  <defs
     id="defs22">
    <marker
       inkscape:isstock="true"
       style="overflow:visible"
       id="Arrow2Mend"
       refX="0"
       refY="0"
       orient="auto"
       inkscape:stockid="Arrow2Mend">
      <path
         transform="scale(-0.6)"
         d="M 8.7185878,4.0337352 -2.2072895,0.01601326 8.7185884,-4.0017078 c -1.7454984,2.3720609 -1.7354408,5.6174519 -6e-7,8.035443 z"
         style="fill:#000000;fill-opacity:1;fill-rule:evenodd;stroke:#000000;stroke-width:0.625;stroke-linejoin:round;stroke-opacity:1"
         id="path879" />
    </marker>
    <marker
       inkscape:isstock="true"
       style="overflow:visible"
       id="Arrow2Send"
       refX="0"
       refY="0"
       orient="auto"
       inkscape:stockid="Arrow2Send">
      <path
         transform="matrix(-0.3,0,0,-0.3,0.69,0)"
         d="M 8.7185878,4.0337352 -2.2072895,0.01601326 8.7185884,-4.0017078 c -1.7454984,2.3720609 -1.7354408,5.6174519 -6e-7,8.035443 z"
         style="fill:#000000;fill-opacity:1;fill-rule:evenodd;stroke:#000000;stroke-width:0.625;stroke-linejoin:round;stroke-opacity:1"
         id="path885" />
    </marker>
    <marker
       inkscape:stockid="Arrow2Mend"
       orient="auto"
       refY="0"
       refX="0"
       id="Arrow2Mend-6"
       style="overflow:visible"
       inkscape:isstock="true">
      <path
         id="path879-7"
         style="fill:#000000;fill-opacity:1;fill-rule:evenodd;stroke:#000000;stroke-width:0.625;stroke-linejoin:round;stroke-opacity:1"
         d="M 8.7185878,4.0337352 -2.2072895,0.01601326 8.7185884,-4.0017078 c -1.7454984,2.3720609 -1.7354408,5.6174519 -6e-7,8.035443 z"
         transform="scale(-0.6)" />
    </marker>
    <marker
       inkscape:isstock="true"
       style="overflow:visible"
       id="Arrow2Mend-6-3"
       refX="0"
       refY="0"
       orient="auto"
       inkscape:stockid="Arrow2Mend">
      <path
         transform="scale(-0.6)"
         d="M 8.7185878,4.0337352 -2.2072895,0.01601326 8.7185884,-4.0017078 c -1.7454984,2.3720609 -1.7354408,5.6174519 -6e-7,8.035443 z"
         style="fill:#000000;fill-opacity:1;fill-rule:evenodd;stroke:#000000;stroke-width:0.625;stroke-linejoin:round;stroke-opacity:1"
         id="path879-7-5" />
    </marker>
    <marker
       inkscape:stockid="Arrow2Mend"
       orient="auto"
       refY="0"
       refX="0"
       id="Arrow2Mend-6-3-2"
       style="overflow:visible"
       inkscape:isstock="true">
      <path
         id="path879-7-5-9"
         style="fill:#000000;fill-opacity:1;fill-rule:evenodd;stroke:#000000;stroke-width:0.625;stroke-linejoin:round;stroke-opacity:1"
         d="M 8.7185878,4.0337352 -2.2072895,0.01601326 8.7185884,-4.0017078 c -1.7454984,2.3720609 -1.7354408,5.6174519 -6e-7,8.035443 z"
         transform="scale(-0.6)" />
    </marker>
  </defs>
  <sodipodi:namedview
     pagecolor="#ffffff"
     bordercolor="#666666"
     borderopacity="1"
     objecttolerance="10"
     gridtolerance="10"
     guidetolerance="10"
     inkscape:pageopacity="0"
     inkscape:pageshadow="2"
     inkscape:window-width="1860"
     inkscape:window-height="1016"
     id="namedview20"
     showgrid="false"
     fit-margin-top="0"
     fit-margin-left="0"
     fit-margin-right="0"
     fit-margin-bottom="0"
     inkscape:zoom="1.2138919"
     inkscape:cx="-12.522532"
     inkscape:cy="77.301416"
     inkscape:window-x="60"
     inkscape:window-y="27"
     inkscape:window-maximized="1"
     inkscape:current-layer="svg18"
     inkscape:document-rotation="0" />
  <path
     d="m 47.088532,159.28928 a 25.207647,25.207647 0 0 1 -4.390247,-1.67277 c -2.785879,-1.45512 -6.906659,-5.61736 -8.397021,-8.47786 l -1.152492,-2.21171 -3.548679,-0.0953 c -2.835627,-0.0746 -3.990192,-0.2591 -5.741731,-0.91204 -6.177024,-2.30498 -10.813938,-7.0787 -12.691919,-13.0671 -0.901679,-2.88123 -0.9535,-7.52436 -0.111932,-10.33719 0.310924,-1.0447 0.522352,-1.92773 0.466386,-1.95882 -4.4358503,-2.56823 -8.3493473,-7.61142 -9.7215583,-12.52609 -0.675741,-2.41899 -0.538935,-7.27355 0.277759,-9.897747 1.208458,-3.878259 4.006774,-7.876742 7.209291,-10.297804 C 10.183923,87.157035 10.329021,86.897931 10.024316,86.533114 9.2843167,85.641798 8.0261107,81.761467 7.8250467,79.742533 7.1347947,72.860748 12.374901,65.489776 19.463969,63.367202 l 1.865545,-0.559664 -0.196919,-2.135011 c -0.914117,-9.806543 8.361784,-18.41292 18.224293,-16.908048 1.89871,0.290196 2.640782,0.30056 2.727841,0.03731 0.252884,-0.754509 2.665655,-3.548679 4.03372,-4.665933 1.886273,-1.542183 5.248398,-3.088512 7.520216,-3.455402 6.069237,-0.986666 13.226708,3.217027 16.35253,9.599261 l 1.251988,2.559941 0.08706,46.356697 c 0.09328,49.849406 0.126442,48.711426 -1.552548,53.188736 -3.353833,8.94632 -13.547995,14.29421 -22.689162,11.90424 z m 45.181406,0.15961 c -6.060946,-1.31417 -11.869006,-6.2931 -14.012309,-12.00996 -1.712155,-4.56644 -1.66448,-2.92268 -1.571203,-53.093382 l 0.08291,-46.539106 1.266497,-2.555796 c 3.129969,-6.322122 10.233546,-10.552761 16.122447,-9.605479 2.321566,0.373109 4.303189,1.160783 6.425767,2.543358 1.78885,1.167002 4.48352,3.938371 5.06598,5.211087 0.31922,0.698542 0.46017,0.73378 1.98992,0.487114 0.90375,-0.145098 2.74028,-0.244594 4.08347,-0.217647 8.6499,0.167899 15.96076,8.38873 15.15651,17.038636 l -0.20107,2.168177 1.05714,0.219719 c 4.10835,0.849859 8.82195,4.659715 10.82016,8.741111 1.62302,3.308231 2.0521,6.259937 1.36807,9.404415 -0.29642,1.355629 -0.91619,3.217027 -1.38051,4.139435 l -0.84571,1.67899 1.07372,0.808402 c 3.14863,2.377533 5.95316,6.390525 7.17613,10.264639 0.82291,2.611757 0.9535,7.429007 0.26739,9.897747 -1.20223,4.31148 -4.54778,9.0168 -8.13999,11.43579 -0.81462,0.54929 -1.5256,1.03226 -1.58156,1.07372 -0.056,0.0415 0.15546,0.9307 0.46846,1.9754 0.83949,2.81076 0.78767,7.45803 -0.11401,10.33719 -1.86969,5.95938 -6.54599,10.77455 -12.69192,13.0671 -1.75154,0.65294 -2.9061,0.83742 -5.74173,0.91204 l -3.54868,0.0953 -1.15249,2.20964 c -1.48829,2.8605 -5.61114,7.02481 -8.3908,8.47786 -4.06274,2.1205 -8.71002,2.77344 -13.052592,1.83445 z"
     id="path2"
     inkscape:connector-curvature="0"
     style="fill:#ffaaaa;stroke:#000000;stroke-width:2.07283" />
  <path
     d="m 46.790045,160.6076 a 25.207647,25.207647 0 0 1 -4.388174,-1.67484 c -2.785879,-1.45513 -6.906659,-5.61529 -8.399094,-8.47787 l -1.150419,-2.20963 -3.54868,-0.0953 c -2.835627,-0.0746 -3.990191,-0.2591 -5.74173,-0.91204 -6.177024,-2.30499 -10.813938,-7.07871 -12.691919,-13.06917 -0.9037523,-2.87916 -0.9535003,-7.52437 -0.114005,-10.33512 0.312997,-1.04678 0.522352,-1.92773 0.468459,-1.95882 -4.4358503,-2.57031 -8.3493473,-7.61142 -9.7215583,-12.52816 -0.67781396,-2.41692 -0.53893496,-7.27148 0.275686,-9.89568 1.208458,-3.880331 4.008847,-7.876741 7.211364,-10.299876 0.895461,-0.675741 1.0426323,-0.932772 0.737927,-1.299662 C 8.9858297,86.960116 7.7296967,83.079784 7.5265597,81.058778 6.8383807,74.176993 12.078487,66.806021 19.167555,64.683447 L 21.0331,64.123783 20.834108,61.992917 c -0.912044,-9.810688 8.363856,-18.417065 18.224293,-16.91012 1.900783,0.290196 2.640782,0.30056 2.729913,0.03731 0.250812,-0.756582 2.665656,-3.54868 4.033721,-4.668006 1.8842,-1.54011 5.248398,-3.086439 7.520216,-3.455402 6.067164,-0.984593 13.226707,3.2191 16.350457,9.601334 l 1.254061,2.559941 0.08706,46.354625 c 0.09328,49.851481 0.124369,48.711431 -1.554621,53.192881 -3.35176,8.94425 -13.545923,14.29214 -22.689162,11.90217 z m 8.550411,-4.97686 c 5.078426,-1.35355 8.780494,-5.17792 9.995171,-10.32267 0.319215,-1.34734 0.408347,-12.1675 0.408347,-48.777763 V 49.481286 l -0.953501,-1.720447 c -1.191875,-2.145375 -2.978652,-3.778763 -5.347893,-4.887725 -2.597252,-1.214677 -5.978032,-1.18773 -8.421895,0.0684 -2.278037,1.171147 -4.021284,3.022182 -5.333384,5.658817 -0.646721,1.299663 -1.421959,2.352659 -1.946384,2.644927 -0.800111,0.445658 -1.019831,0.420784 -2.763078,-0.315069 -2.810753,-1.18773 -6.715959,-1.144201 -9.255172,0.0995 a 10.43461,10.43461 0 0 0 -5.142683,5.61736 c -0.592828,1.564984 -0.702688,2.400334 -0.594901,4.522908 0.07669,1.515237 0.348235,3.005599 0.648795,3.569408 0.283977,0.530644 0.972155,1.93602 1.529746,3.121677 2.976579,6.340777 11.566373,10.160997 18.205637,8.098534 2.74235,-0.849859 4.78823,-2.246944 7.439376,-5.078425 1.809578,-1.931875 2.454227,-2.416916 3.206663,-2.416916 2.118429,0 3.223246,1.969185 2.20756,3.928006 -0.96801,1.86969 -5.036969,5.563468 -7.621784,6.919096 l -2.404479,1.262352 0.795966,0.489187 c 0.437366,0.269467 2.041734,1.741174 3.561116,3.275066 3.428456,3.449184 5.030751,6.288957 5.368622,9.512202 0.269467,2.535068 0.08706,2.72784 -2.255236,2.377533 C 55.26998,96.018324 55.205722,95.954067 53.663539,93.197207 50.485896,87.517662 45.747413,83.792792 38.921595,81.614251 34.931403,80.341535 32.313423,79.240864 30.55152,78.094591 28.250682,76.602156 25.211918,73.343672 23.999315,71.071854 l -1.071652,-2.006497 -1.34941,0.207283 c -2.062463,0.31507 -5.269126,1.989914 -6.376016,3.333106 -1.875908,2.267672 -2.416916,3.838875 -2.435571,7.051756 -0.02073,3.326887 0.511988,4.850415 2.535067,7.250748 1.86969,2.219998 1.500726,3.602573 -1.351483,5.078426 -2.201342,1.135909 -5.2359613,4.037867 -6.2018983,5.928285 -1.625096,3.177639 -2.068681,7.153329 -1.177366,10.563129 1.10689,4.241 3.4512573,7.05383 7.5181433,9.01679 3.544534,1.71423 3.668904,2.09356 2.03137,6.29103 -1.042631,2.68224 -1.057141,7.55131 -0.03109,10.33926 2.570305,6.97091 9.991026,10.44704 17.805583,8.34105 a 26.714592,26.714592 0 0 0 4.922963,-1.97748 c 8.10268,-4.46487 10.505087,-11.60575 6.861057,-20.37795 -2.34644,-5.65467 -7.710916,-9.00229 -14.022673,-8.75355 -1.734956,0.0684 -1.985768,-0.008 -2.688456,-0.82291 -0.986666,-1.1442 -0.98252,-2.20756 0.01036,-3.35798 0.758654,-0.88302 0.880951,-0.91204 3.824365,-0.8851 9.327721,0.0829 16.182559,5.62773 18.821267,15.22284 0.83535,3.04706 0.899607,7.54509 0.147171,10.35377 -1.511091,5.63809 -6.125203,10.94452 -12.134328,13.95841 -1.971258,0.98667 -1.989914,1.1981 -0.337871,3.814 1.807505,2.85636 5.217305,5.3479 8.318254,6.0796 1.873836,0.43944 5.911702,0.39384 7.723353,-0.0891 z m 36.630995,5.1344 c -6.058873,-1.3121 -11.869006,-6.29103 -14.012309,-12.00996 -1.712155,-4.56644 -1.662407,-2.92269 -1.571203,-53.091314 l 0.08499,-46.541179 1.264424,-2.553723 c 3.132041,-6.322122 10.235619,-10.552761 16.12452,-9.605479 2.319493,0.373108 4.303188,1.15871 6.423691,2.541285 1.79092,1.169074 4.48352,3.938371 5.06806,5.21316 0.31922,0.698542 0.4581,0.73378 1.98991,0.487114 0.90376,-0.145098 2.74028,-0.244594 4.0814,-0.217647 8.65198,0.165826 15.96284,8.386657 15.15858,17.038636 l -0.20313,2.168176 1.05714,0.217647 c 4.10834,0.851932 8.82402,4.661788 10.82223,8.743184 1.62095,3.308231 2.05002,6.259937 1.36599,9.404415 -0.29434,1.353556 -0.91619,3.217027 -1.3805,4.139435 l -0.84364,1.67899 1.07372,0.808402 c 3.14655,2.37546 5.95316,6.390525 7.17405,10.264638 0.82499,2.61176 0.9535,7.42901 0.26947,9.89568 -1.20224,4.31147 -4.54985,9.01679 -8.13999,11.43785 a 177.22669,177.22669 0 0 0 -1.58157,1.07373 c -0.056,0.0415 0.15547,0.92862 0.46639,1.9754 0.84157,2.81075 0.78975,7.45596 -0.11193,10.33512 -1.86969,5.96144 -6.54599,10.77662 -12.69399,13.06917 -1.75154,0.65294 -2.90404,0.83742 -5.74174,0.91204 l -3.54867,0.0953 -1.15042,2.20963 c -1.49037,2.86051 -5.61322,7.02274 -8.39288,8.47579 -4.06274,2.12258 -8.710017,2.77552 -13.052589,1.83446 z m 10.111249,-5.90756 c 3.89691,-1.82202 6.12935,-4.46694 7.72957,-9.16397 1.09031,-3.20666 1.62717,-3.53417 4.80274,-2.93719 2.87087,0.53893 6.45271,0.29434 8.84061,-0.60734 3.6461,-1.37636 6.78436,-4.68874 8.02184,-8.46543 0.69647,-2.1205 0.79596,-6.95433 0.18655,-8.95046 l -0.40213,-1.32661 -4.47316,-0.0332 c -4.68459,-0.0352 -8.17523,-0.5493 -11.72805,-1.73081 -1.84896,-0.61355 -2.31328,-0.64879 -4.44622,-0.33165 -1.31002,0.19485 -3.18178,0.65294 -4.15809,1.01569 -3.97568,1.48621 -7.59276,5.13232 -9.05203,9.12458 -0.773164,2.11843 -1.560839,2.88123 -2.972434,2.88123 -1.162855,0 -2.514339,-1.3121 -2.514339,-2.43972 0,-0.46638 0.321289,-1.60437 0.71098,-2.52885 2.396188,-5.65881 7.101505,-10.21281 12.507433,-12.09909 l 1.67899,-0.58661 -1.39501,-1.79921 c -1.96089,-2.53507 -2.92683,-4.33221 -3.9135,-7.28391 -1.533888,-4.57266 -1.521451,-11.844135 0.0187,-13.382173 0.98045,-0.976301 2.60347,-1.013612 3.59843,-0.07877 0.70062,0.657086 0.72549,0.84364 0.55137,4.622403 -0.14095,3.10717 -0.0622,4.38403 0.37311,6.04851 1.27686,4.86285 4.90638,9.47282 8.91108,11.31349 3.47199,1.59607 6.31383,2.09977 11.91047,2.10806 4.58923,0.006 4.98514,-0.0435 6.75119,-0.85193 2.1516,-0.98459 5.03697,-3.69378 6.0568,-5.68991 2.14952,-4.20784 2.14745,-9.5578 -0.004,-13.769787 -0.94313,-1.842743 -3.96531,-4.750919 -6.13971,-5.907557 -0.98252,-0.522352 -1.96504,-1.179438 -2.18476,-1.457197 -0.72549,-0.932772 -0.46224,-2.176468 0.77109,-3.641957 2.02101,-2.400333 2.55373,-3.923861 2.53507,-7.250748 -0.0207,-3.212881 -0.55966,-4.784084 -2.43557,-7.051756 -1.10275,-1.336974 -4.31148,-3.018036 -6.35529,-3.331033 l -1.33075,-0.203137 -1.43233,2.211706 c -2.00857,3.096803 -5.55725,6.543914 -7.93685,7.702624 -2.49154,1.214677 -6.32627,1.490363 -9.71949,0.69647 -2.83562,-0.663304 -7.503628,-2.829408 -7.970014,-3.699996 -0.580391,-1.082015 -0.408347,-2.30291 0.443585,-3.152769 1.007394,-1.007394 2.130869,-1.009467 3.857529,-0.01036 3.57563,2.070754 8.4447,2.740277 11.11243,1.529746 1.76812,-0.804257 4.0959,-3.129969 5.78526,-5.789405 2.29876,-3.612937 2.66772,-4.726045 2.66772,-8.038423 0,-2.545431 -0.11815,-3.167279 -0.90375,-4.765428 a 10.834666,10.834666 0 0 0 -5.07013,-4.929182 c -2.17647,-1.003248 -6.73669,-0.98252 -8.88207,0.03731 -0.83949,0.400056 -1.72044,0.72549 -1.96089,0.72549 -0.89339,0 -1.8842,-1.057142 -2.82112,-3.009745 -2.468784,-5.146829 -7.337854,-7.623857 -12.269109,-6.243354 -3.445038,0.965937 -6.740833,4.141508 -7.601056,7.329515 -0.522352,1.936021 -0.254958,94.093893 0.277759,95.984313 1.392939,4.94577 4.947837,8.56078 9.806543,9.97652 0.909971,0.26532 2.705039,0.38969 4.742628,0.32958 2.86672,-0.085 3.548675,-0.22387 5.422515,-1.0986 z"
     id="path12"
     inkscape:connector-curvature="0"
     style="stroke:#000000;stroke-width:2.07283" />
  <text
     id="text4142-5"
     y="26.227339"
     x="76.358566"
     style="font-style:normal;font-weight:normal;font-size:7.13551px;line-height:0%;font-family:sans-serif;text-align:center;letter-spacing:0px;word-spacing:0px;text-anchor:middle;fill:#0000ff;fill-opacity:1;stroke:none;stroke-width:0.73209px;stroke-linecap:butt;stroke-linejoin:miter;stroke-opacity:1"
     xml:space="preserve"><tspan
       style="font-style:normal;font-variant:normal;font-weight:bold;font-stretch:normal;font-size:34.5203px;line-height:1.25;font-family:sans-serif;-inkscape-font-specification:'sans-serif Bold';text-align:center;text-anchor:middle;stroke-width:0.73209px"
       y="26.227339"
       x="76.358574"
       sodipodi:role="line"
       id="tspan922">Control</tspan></text>
</svg>
